<svg xmlns="http://www.w3.org/2000/svg" viewBox="0 0 512 512" style="enable-background:new 0 0 512 512" xml:space="preserve">
  <path d="M443.313 39.189C398.235 15.019 326.214 0 255.387 0 185.137 0 113.521 14.848 68.55 38.784 35.803 56.213 13.617 86.101 4.486 120.021l491.947 98.389c3.605-8.96 6.571-17.003 8.747-23.701 19.605-60.352-6.401-125.76-61.867-155.52zM255.347 512h.149c60.608 0 128.128-84.139 178.325-168.725L34.525 263.403C82.611 363.947 175.133 511.957 255.347 512zM6.154 195.462c1.899 5.824 4.416 12.693 7.403 20.245l442.304 88.448a1024.943 1024.943 0 0 0 23.019-45.76L.33 162.694c.704 10.944 2.283 21.91 5.824 32.768z"/>
</svg>
