<svg xmlns="http://www.w3.org/2000/svg" viewBox="0 0 330 330" width="15" height="15" style="enable-background:new 0 0 330 330" xml:space="preserve">
  <path d="M185.606 94.395c-5.857-5.857-15.355-5.857-21.213 0-5.858 5.857-5.858 15.355 0 21.213l34.395 34.395-103.79.006c-8.284 0-15 6.717-14.999 15.001 0 8.284 6.717 14.999 15.001 14.999l103.784-.006-34.392 34.393c-5.858 5.857-5.858 15.355 0 21.213a14.952 14.952 0 0 0 10.606 4.394 14.95 14.95 0 0 0 10.606-4.394l60-60.001a14.995 14.995 0 0 0 .002-21.214l-60-59.999z" fill="white"/>
</svg>
