<svg xmlns="http://www.w3.org/2000/svg" fill="white" viewBox="0 0 330 330" width="15" height="15" style="enable-background:new 0 0 330 330" xml:space="preserve">
  <path d="m234.999 149.992-103.784.006 34.392-34.393c5.858-5.857 5.858-15.355 0-21.213-5.857-5.857-15.355-5.857-21.213 0l-60 60.001a14.998 14.998 0 0 0 0 21.213l60 59.999A14.95 14.95 0 0 0 155 239.998c3.839 0 7.678-1.465 10.606-4.393 5.858-5.857 5.858-15.355 0-21.213l-34.395-34.395 103.79-.006c8.284 0 14.999-6.717 14.999-15.001-.001-8.283-6.717-14.998-15.001-14.998z" fill="white"/>
</svg>
